<?xml version="1.0" encoding="UTF-8"?>
<svg id="Layer_1" data-name="Layer 1" xmlns="http://www.w3.org/2000/svg" xmlns:xlink="http://www.w3.org/1999/xlink" viewBox="0 0 1000 1000">
  <defs>
    <style>
      .cls-1 {
        fill: url(#linear-gradient);
      }

      .cls-1, .cls-2, .cls-3 {
        stroke-width: 0px;
      }

      .cls-2 {
        fill: #fff;
      }

      .cls-3 {
        fill: url(#linear-gradient-2);
      }
    </style>
    <linearGradient id="linear-gradient" x1="137.67" y1="580.47" x2="793.17" y2="580.47" gradientUnits="userSpaceOnUse">
      <stop offset="0" stop-color="blue"/>
      <stop offset=".65" stop-color="#fff"/>
    </linearGradient>
    <linearGradient id="linear-gradient-2" x1="101.6" y1="562.44" x2="757.11" y2="562.44" xlink:href="#linear-gradient"/>
  </defs>
  <path class="cls-2" d="m898.33,475.73c0-6.4-1.83-7.4-7.42-4.21-6.83,3.92-13.65,7.87-21.25,12.26,1.09-7.84-1.86-12.84-9.16-15.82,7.99-4.62,15.06-8.69,22.1-12.82,4.24-2.48,4.34-5.03.21-7.43-18.36-10.66-36.77-21.24-55.16-31.86-3.75-2.16-7.6-2.26-11.32-.12-18.53,10.63-37.04,21.31-55.5,32.06-3.92,2.27-3.8,4.81.11,7.25,1.32.82,2.71,1.54,4.06,2.33,5.78,3.36,11.58,6.74,18.27,10.64-7.36,3-10.19,7.92-9.19,15.73-8.02-4.6-15.11-8.7-22.22-12.73-4.33-2.44-6.37-1.3-6.39,3.74-.06,21.1,0,42.21-.03,63.33,0,4.69,2,8.11,6.04,10.43,18.16,10.46,36.3,20.95,54.45,31.39,4.59,2.63,6.83,1.27,6.84-4.12.02-8.32.03-16.65.03-24.97l18.18,10.49c0,4.78.02,9.57.03,14.35.02,5.66,2.19,6.92,7.08,4.1,17.79-10.23,35.52-20.57,53.36-30.71,4.86-2.75,6.99-6.57,6.96-12.09-.11-20.4-.03-40.81-.08-61.21Zm-123.28-24.37c9.55-5.51,18.59-10.73,27.61-15.95,5.63-3.25,11.22-6.61,16.94-9.72,1.12-.61,3.1-.79,4.15-.21,14.53,8.23,28.97,16.62,43.41,24.99.35.2.58.58,1.1,1.14-5.48,3.19-10.79,6.43-16.27,9.32-1.01.53-2.98.05-4.15-.61-6.58-3.62-13.08-7.36-19.54-11.17-4.33-2.56-8.49-2.56-12.81,0-6.46,3.81-12.96,7.57-19.53,11.19-1.18.64-3.13,1.1-4.16.56-5.49-2.88-10.82-6.1-16.76-9.54Zm64.98,16.39c-6.12,3.54-11.44,6.68-16.83,9.67-.68.38-1.95.36-2.65-.03-5.39-3-10.72-6.13-16.76-9.63,6.05-3.51,11.44-6.71,16.94-9.7.74-.41,2.21-.09,3.07.38,5.18,2.86,10.28,5.87,16.23,9.31Zm-37.42,98.4c-15.71-9.05-30.53-17.56-45.27-26.17-.8-.45-1.57-1.76-1.57-2.66-.09-17.09-.06-34.19-.06-52.27,6.22,3.59,11.82,6.71,17.27,10.1.74.45.89,2.24.91,3.41.08,7.36.15,14.71,0,22.07-.11,5.37,2.06,9.16,6.75,11.76,6.42,3.56,12.84,7.16,19.04,11.09,1.42.91,2.69,3.18,2.8,4.89.35,5.6.14,11.23.14,17.79Zm-.32-33.15c-6.12-3.53-11.58-6.58-16.91-9.85-.74-.45-1.24-1.86-1.26-2.85-.12-5.92-.06-11.84-.06-18.74,6.12,3.53,11.47,6.55,16.74,9.73.71.42,1.41,1.51,1.42,2.32.12,6.16.06,12.32.06,19.39Zm10.52,6.36c0-8.69.02-17.38.06-26.06.03-4.89-1.97-8.42-6.13-10.82-5.51-3.19-10.84-6.8-16.59-9.45-5.04-2.32-6.8-5.51-6.18-10.87.51-4.47,7.87-9.04,11.76-6.83,6.52,3.69,13.03,7.4,19.47,11.23,4.62,2.74,9.02,2.65,13.58-.12,5.33-3.21,11.02-5.87,16.07-9.46,4.28-3.03,7.61-2.72,11.7.17,4.33,3.07,4.62,11.34.05,14.02-6.46,3.78-12.96,7.52-19.47,11.25-4.33,2.48-6.34,6.15-6.31,11.17.08,12.09.11,24.17.14,36.25l-18.15-10.47Zm46.77-18.45c-.02.8-.67,1.94-1.36,2.35-5.27,3.19-10.63,6.24-16.68,9.75,0-6.99-.06-13.17.06-19.34.02-.82.68-1.94,1.38-2.36,5.27-3.18,10.63-6.22,16.67-9.72,0,7.01.05,13.17-.06,19.33Zm28.5,14.53c-.02,1.57-.7,3.91-1.83,4.59-14.59,8.64-29.33,17.06-45.05,26.13,0-7.14-.14-13.32.14-19.5.05-1.14,1.59-2.53,2.79-3.24,6.18-3.74,12.4-7.4,18.72-10.85,4.86-2.66,7.17-6.45,7.02-12.05-.21-7.36-.09-14.73,0-22.1,0-1.15.24-2.88,1-3.35,5.34-3.33,10.87-6.4,16.97-9.93.14,2.13.29,3.48.29,4.83.03,15.15.08,30.32-.05,45.47Z"/>
  <g>
    <path class="cls-2" d="m213.38,535.12h-17.31l8.26-32.36c.27-1.02.19-1.84-.19-2.56-.34-.68-.91-1.01-1.67-1.01h-25.46l-9.17,35.94h-17.31l8.75-34.25c.3-1.31.61-2.61.83-3.96.23-1.36.23-2.61-.04-3.82-.23-1.21-.83-2.28-1.82-3.19h58c2.39,0,4.13,1.06,5.27,3.24,1.14,2.18,1.33,4.84.57,7.88l-8.71,34.1Z"/>
    <path class="cls-2" d="m231.59,535.12c-2.46,0-4.28-1.11-5.49-3.39-1.17-2.27-1.36-4.98-.57-8.17l1.82-7.11c.72-2.76,2.01-5.22,3.9-7.3,1.89-2.08,3.98-3.44,6.21-4.01-1.93-.63-3.33-1.98-4.17-4.06-.83-2.08-.91-4.5-.19-7.3l1.7-6.68c.8-3.14,2.39-5.9,4.74-8.17,2.35-2.27,4.74-3.39,7.24-3.39h53.23c2.5,0,4.32,1.11,5.49,3.39,1.17,2.27,1.36,5.03.57,8.17l-1.7,6.68c-.72,2.8-2.01,5.22-3.9,7.3-1.89,2.08-3.98,3.44-6.21,4.06,1.93.58,3.33,1.93,4.17,4.01.83,2.08.91,4.55.19,7.3l-1.82,7.11c-.8,3.19-2.39,5.9-4.7,8.17-2.35,2.27-4.77,3.39-7.27,3.39h-53.23Zm46.11-11.9c1.06-1.11,1.74-2.37,2.12-3.77l.99-3.92c.34-1.4.26-2.56-.23-3.58-.53-1.02-1.33-1.5-2.46-1.5h-27.24c-1.06,0-2.16.48-3.18,1.5s-1.74,2.18-2.08,3.58l-.98,3.92c-.38,1.4-.3,2.66.19,3.77.49,1.11,1.29,1.69,2.39,1.69h27.24c1.1,0,2.2-.58,3.26-1.69Zm6.21-24.47c1.02-1.01,1.74-2.18,2.08-3.58l1.02-3.97c.34-1.4.26-2.66-.23-3.77-.45-1.11-1.25-1.69-2.39-1.69h-27.24c-1.06,0-2.16.58-3.22,1.69-1.06,1.11-1.78,2.37-2.12,3.77l-1.02,3.97c-.34,1.4-.26,2.56.26,3.58.53,1.02,1.33,1.5,2.42,1.5h27.24c1.1,0,2.16-.48,3.18-1.5Z"/>
    <path class="cls-2" d="m365.43,535.12h-17.31l8.26-32.36c.27-1.02.19-1.84-.19-2.56-.34-.68-.91-1.01-1.67-1.01h-25.46l-9.17,35.94h-17.31l8.75-34.25c.3-1.31.61-2.61.83-3.96.23-1.36.23-2.61-.04-3.82-.23-1.21-.83-2.28-1.82-3.19h58c2.39,0,4.13,1.06,5.27,3.24,1.14,2.18,1.33,4.84.57,7.88l-8.71,34.1Z"/>
    <path class="cls-2" d="m376.1,513.74l3.33-13.06h34.06l-3.33,13.06h-34.06Z"/>
    <path class="cls-2" d="m411.5,535.12l12.39-48.56c.34-1.31.61-2.66.83-4.01.23-1.35.23-2.61,0-3.82-.23-1.21-.87-2.27-1.82-3.19h68.95l-2.61,10.21h-47.09l-4.21,16.54h45.35l-2.58,10.2h-45.35l-5.8,22.64h-18.07Z"/>
    <path class="cls-2" d="m549.77,535.12h-21.18l-4.09-16.25h-33.64l-12.43,16.25h-10.72l36.75-48.13c1.55-2.13,2.54-4.06,2.99-5.85.57-2.27.23-4.16-1.06-5.61h28.3l15.08,59.59Zm-27.88-26.46l-5.8-22.93-17.5,22.93h23.3Z"/>
    <path class="cls-2" d="m618.68,535.12h-65.96l2.61-10.21h52.96c1.1,0,2.2-.58,3.26-1.69,1.06-1.11,1.74-2.37,2.12-3.77l.99-3.92c.38-1.4.3-2.61-.23-3.63-.53-.97-1.33-1.45-2.46-1.45h-43.95c-2.46,0-4.32-1.16-5.49-3.43-1.17-2.28-1.36-4.98-.57-8.13l3.3-13.01c.3-1.21.57-2.42.76-3.68.19-1.26.15-2.47-.08-3.63-.26-1.11-.87-2.13-1.82-3.05h76.87l-2.61,10.21h-51.07c-1.06,0-2.12.48-3.18,1.45-1.02,1.02-1.71,2.22-2.08,3.63l-1.02,3.97c-.34,1.4-.27,2.66.23,3.77.49,1.11,1.29,1.69,2.39,1.69h43.95c2.46,0,4.28,1.11,5.49,3.39s1.4,4.98.57,8.17l-2.99,11.75c-.8,3.19-2.39,5.9-4.74,8.17-2.35,2.27-4.74,3.39-7.24,3.39Z"/>
    <path class="cls-2" d="m662.16,535.12l12.58-49.38h-29.1l2.61-10.21h76.19l-2.61,10.21h-29.06l-12.58,49.38h-18.03Z"/>
  </g>
  <polygon class="cls-1" points="160.43 585.82 793.17 585.82 770.41 575.12 137.67 575.12 160.43 585.82"/>
  <polygon class="cls-3" points="124.36 567.79 757.11 567.79 734.35 557.09 101.6 557.09 124.36 567.79"/>
</svg>